<svg id="Layer_1" data-name="Layer 1" xmlns="http://www.w3.org/2000/svg" viewBox="0 0 1561.99 595.77"><defs><style>.cls-1{fill:#231f20;}.cls-2{fill:#008996;}.cls-3{fill:#005d83;}.cls-4{fill:#19d3c5;}.cls-5{fill:#00adbb;}.cls-6{fill:#ffa400;}</style></defs><title>logo_inesina-02</title><path class="cls-1" d="M442,175.67a6.28,6.28,0,0,1-6.15,6.14,6.09,6.09,0,0,1-5.93-6.14,5.91,5.91,0,0,1,5.93-5.93A6.1,6.1,0,0,1,442,175.67Zm-2,32.48v89.78a4,4,0,0,1-4.17,4.17,4,4,0,0,1-3.95-4.17V208.15A4.13,4.13,0,0,1,435.8,204,4.17,4.17,0,0,1,440,208.15Z"/><path class="cls-1" d="M547.3,239.54v58.39a4,4,0,0,1-3.95,4.17,4,4,0,0,1-4.17-4.17V239.54c0-9-2-15.8-5.93-20-4.17-4.83-11.63-7.24-22.17-7.24s-19.31,1.75-26.78,5.7a17.67,17.67,0,0,0-2.19,1.1v78.8a4.17,4.17,0,0,1-4.17,4.17,4,4,0,0,1-4.17-4.17V208.15a4.17,4.17,0,0,1,4.17-4.17,4.32,4.32,0,0,1,4.17,4.17v1.76c8.34-3.95,17.78-5.93,29-5.93,12.95,0,22.61,3.3,28.54,9.88C544.67,219.57,547.3,228.35,547.3,239.54Z"/><path class="cls-1" d="M645.85,239.54v11.64a4.32,4.32,0,0,1-4.17,4.17H582v11.41q0,13.5,5.93,19.75c4.61,4.83,12.29,7.25,23.27,7.25,9.66,0,17.77-1.32,24.14-3.73a4.11,4.11,0,0,1,5.49,2.19,4.21,4.21,0,0,1-2.42,5.49c-7.46,2.85-16.46,4.39-27.21,4.39-13.39,0-23.27-3.29-29.2-9.88-5.48-5.71-8.34-14.05-8.34-25.46V239.32c0-11.19,2.86-19.53,8.34-25.46s14.49-9.22,26.34-9.88v0c13.4,0,23.27,3.52,29.2,10.1C643.22,219.79,645.85,228.13,645.85,239.54Zm-8.34,0c0-9.22-2-15.58-5.93-20q-6.92-7.24-23.05-7.24c-9.66.43-16.46,2.85-20.63,7.24Q582,225.83,582,239.32V247h55.54Z"/><path class="cls-1" d="M675.25,298.59a4.31,4.31,0,0,1-2.85-5.27,4.17,4.17,0,0,1,5.27-2.63c12.29,3.73,29.41,4.82,38.19-1.54,4.17-3.07,6.15-7.46,6.15-13.39,0-13.83-10.76-18.22-23.27-23.49-11.63-4.83-24.8-10.53-24.8-25.9,0-6.36,2.19-11.63,6.8-15.36,11.2-9.44,33.14-6.81,41.93-5.27a4.27,4.27,0,0,1,3.51,4.83,4.2,4.2,0,0,1-4.83,3.29c-12.51-2.19-28.32-2.41-35.34,3.51-2.63,2.2-3.73,5-3.73,9,0,9.44,7.46,13.17,19.75,18.22,12.51,5.27,28.1,11.85,28.1,31.17,0,8.56-3.08,15.36-9.22,20-6.37,4.61-14.71,6.37-23.27,6.37A78.71,78.71,0,0,1,675.25,298.59Z"/><path class="cls-1" d="M769.63,175.67a6.27,6.27,0,0,1-6.14,6.14,6.09,6.09,0,0,1-5.93-6.14,5.9,5.9,0,0,1,5.93-5.93A6.09,6.09,0,0,1,769.63,175.67Zm-2,32.48v89.78a4,4,0,0,1-4.17,4.17,4,4,0,0,1-4-4.17V208.15a4.07,4.07,0,1,1,8.13,0Z"/><path class="cls-1" d="M875,239.54v58.39a4,4,0,0,1-4,4.17,4,4,0,0,1-4.17-4.17V239.54c0-9-2-15.8-5.93-20-4.17-4.83-11.63-7.24-22.17-7.24S819.45,214.08,812,218a16.93,16.93,0,0,0-2.19,1.1v78.8a4.17,4.17,0,0,1-4.17,4.17,4,4,0,0,1-4.17-4.17V208.15a4.17,4.17,0,0,1,4.17-4.17,4.32,4.32,0,0,1,4.17,4.17v1.76c8.34-3.95,17.78-5.93,29-5.93,13,0,22.61,3.3,28.54,9.88C872.35,219.57,875,228.35,875,239.54Z"/><path class="cls-1" d="M973.54,283.22v14.71a4.18,4.18,0,0,1-4.18,4.17,4.31,4.31,0,0,1-4.16-4.17V294.2c-7,4.83-17.56,7.9-28.1,7.9a47.05,47.05,0,0,1-18-3.29q-17.77-7.9-17.78-29c0-8.12,2.64-14.48,7.68-19.09,7.69-7,20.2-10.1,37.76-9a136.36,136.36,0,0,1,18.44,2.41v-7.9c0-8.12-1.76-13.83-5.27-17.56-4.17-4.39-11.42-6.36-21.51-6.36q-13.5,0-22.39,3.29a4.3,4.3,0,0,1-5.49-2.2,4.63,4.63,0,0,1,2.42-5.49c7-2.63,15.58-4,25.46-4,12.51,0,21.73,3.08,27.43,9,5.27,5.27,7.69,13,7.69,23.27v47Zm-8.34-1.1V252.49a156.47,156.47,0,0,0-19.1-2.41,53.43,53.43,0,0,0-5.93-.22c-11.85,0-20.41,2.41-25.46,6.8-3.51,3.3-5.05,7.47-5.05,13.17,0,10.76,4,17.56,12.73,21.29a38.16,38.16,0,0,0,14.71,2.64c9.66,0,19.31-2.85,24.8-7.46A12.1,12.1,0,0,0,965.2,282.12Z"/><path class="cls-1" d="M1075.09,281.11c10.85,0,16.28-3.1,16.28-9.69,0-5.23-8.92-9.5-26.56-12.6-22.68-4.07-34.31-14.15-34.5-30.24,0-22.1,17.45-32.56,40.9-33q19.77,0,31.4,8.72,11.34,9,12.21,25h-16.28c-6-.19-9.88-2.33-11.44-6.4-1.74-4.46-7-7-15.5-7-10.08,0-15.12,2.72-15.12,8s6.59,9.31,20,11.83c17.44,3.48,28.88,7.94,34.5,13.18a25.49,25.49,0,0,1,7.17,18.22c0,25.2-19.77,34.5-46.91,34.5-14.34,0-25.2-3.1-32.18-9.11-7.75-5.81-11.63-14.73-11.63-26.56h26.37C1054.34,277.24,1062.49,281.11,1075.09,281.11Z"/><path class="cls-1" d="M1221.82,248.94c0,35.27-15.7,53.11-46.72,53.11s-46.52-17.84-46.52-53.11c0-35.67,15.51-53.31,46.52-53.31S1221.82,213.27,1221.82,248.94Zm-67.07,0c.2,20,7,30,20.16,30s19.77-10.47,20-30.82c0-20-6.6-29.85-19.78-29.85C1161.54,218.31,1154.75,228.58,1154.75,248.94Z"/><path class="cls-1" d="M1260,180.51V299.72h-25.78V167.91h13.38A12.66,12.66,0,0,1,1260,180.51Z"/><path class="cls-1" d="M1301.1,223.93h-25.79c3.11-19,16.48-28.3,40.13-28.3,28.3,0,42.64,9.3,43.23,28.3v34.89c0,28.3-17.06,40.9-44.78,42.84-24.62,1.94-41.68-9.5-41.68-32.18.58-24.61,18.42-31.21,44.39-33.72,11.05-1.36,16.67-4.66,16.67-10.28-.58-5.81-6-8.72-16.67-8.72C1307.49,216.76,1302.45,219.09,1301.1,223.93Zm32.56,33.73v-9.5a111.65,111.65,0,0,1-20.55,6.2c-10.27,1.94-15.51,6.79-15.51,14.35.59,8.14,4.85,12,13,12C1324.94,280.73,1333.66,272.2,1333.66,257.66Z"/><path class="cls-1" d="M1371.07,246.8c.77-33.14,18.41-49.62,52.72-49.62h3.68v26.75h-8.72c-14.34,0-21.51,7.56-21.51,22.49v53.3h-26.17Z"/><path class="cls-1" d="M582.62,427.11a1.16,1.16,0,0,1-1.11,1.12h-21a1.12,1.12,0,0,1-1.12-1.12V390.53a1.07,1.07,0,0,1,1.12-1.11h21a1.11,1.11,0,0,1,1.11,1.11,1.16,1.16,0,0,1-1.11,1.12H561.57v14.88h18.64a1.12,1.12,0,0,1,1.12,1.12,1.15,1.15,0,0,1-1.12,1.11H561.57V426h19.94A1.11,1.11,0,0,1,582.62,427.11Z"/><path class="cls-1" d="M623.73,427.7l-20.12-33.23v32.64a1.15,1.15,0,0,1-1.11,1.12,1.12,1.12,0,0,1-1.12-1.12V390.53a1.08,1.08,0,0,1,.83-1.06,1,1,0,0,1,1.23.48l20.17,33.16V390.53a1.07,1.07,0,0,1,1.12-1.11,1.05,1.05,0,0,1,1,1.11v36.58a1.08,1.08,0,0,1-.76,1.06,2.35,2.35,0,0,0-.29.06A1.3,1.3,0,0,1,623.73,427.7Z"/><path class="cls-1" d="M669.25,427.11a1.16,1.16,0,0,1-1.12,1.12h-21a1.12,1.12,0,0,1-1.12-1.12V390.53a1.07,1.07,0,0,1,1.12-1.11h21a1.11,1.11,0,0,1,1.12,1.11,1.16,1.16,0,0,1-1.12,1.12H648.19v14.88h18.65a1.12,1.12,0,0,1,1.11,1.12,1.15,1.15,0,0,1-1.11,1.11H648.19V426h19.94A1.11,1.11,0,0,1,669.25,427.11Z"/><path class="cls-1" d="M711.12,427.82,693.6,408.35a1.06,1.06,0,0,1-.18-1.17,1,1,0,0,1,.94-.65h6.7a7.44,7.44,0,1,0,0-14.88H690.24v35.46a1.15,1.15,0,0,1-1.11,1.12,1.12,1.12,0,0,1-1.12-1.12V390.53a1.07,1.07,0,0,1,1.12-1.11h11.93a9.67,9.67,0,0,1,0,19.34h-4.17l15.87,17.59a1.1,1.1,0,0,1-.11,1.58,1.06,1.06,0,0,1-.71.3A1.13,1.13,0,0,1,711.12,427.82Z"/><path class="cls-1" d="M728,408.82c0-17.52,11.88-19.4,17-19.4a25.81,25.81,0,0,1,9.93,1.65,1.11,1.11,0,0,1,.59,1.47,1.15,1.15,0,0,1-1.47.58,23.7,23.7,0,0,0-9-1.47c-5.53,0-14.76,2.23-14.76,17.17S739.47,426,745,426a25.22,25.22,0,0,0,9-1.47l.53-.24V407.65a1.08,1.08,0,0,1,1.12-1.12,1.11,1.11,0,0,1,1.11,1.12v17.4a1.14,1.14,0,0,1-.7,1l-1.18.53a26,26,0,0,1-9.93,1.65C739.88,428.23,728,426.35,728,408.82Z"/><path class="cls-1" d="M775.87,427.11V390.53a1.11,1.11,0,0,1,1.12-1.11,1.08,1.08,0,0,1,1.12,1.11v36.58a1.12,1.12,0,0,1-1.12,1.12A1.16,1.16,0,0,1,775.87,427.11Zm4.94-47.22-2.88,6.41a1,1,0,0,1-.88.59,1,1,0,0,1-.94-1.47L779,379a1,1,0,0,1,1.83.88Z"/><path class="cls-1" d="M821.92,428.23a1.08,1.08,0,0,1-1.06-.76l-4.94-15.06h-12L799,427.47a1.12,1.12,0,0,1-2.12-.71l11.94-36.64a1.13,1.13,0,0,1,1.06-.76,1.08,1.08,0,0,1,1.06.76l11.94,36.64A1.11,1.11,0,0,1,821.92,428.23Zm-6.71-18.06-5.29-16.11-5.24,16.11Z"/><path class="cls-1" d="M864.26,426.82a1.06,1.06,0,0,1-.7-1.35,1.09,1.09,0,0,1,1.35-.77c5.35,1.65,12.41,2.06,16.23-.71a6.82,6.82,0,0,0,2.65-5.93c0-6-4.71-8-9.76-10.06-4.82-2.06-9.88-4.17-9.88-10.06a7.38,7.38,0,0,1,2.58-5.88c4.41-3.7,13.18-2.64,16.65-2.06a1.14,1.14,0,0,1,.94,1.3,1.1,1.1,0,0,1-1.24.88c-2.53-.41-11.11-1.59-14.88,1.59a5,5,0,0,0-1.82,4.17c0,4.42,3.94,6.06,8.53,8,5.23,2.18,11.05,4.64,11.05,12.12a9,9,0,0,1-3.53,7.7c-2.41,1.82-5.76,2.47-9.11,2.47A31.62,31.62,0,0,1,864.26,426.82Z"/><path class="cls-1" d="M903.55,414.41V390.53a1.07,1.07,0,0,1,1.12-1.11,1.11,1.11,0,0,1,1.12,1.11v23.88c0,10.17,5.52,11.59,11.05,11.59S928,424.58,928,414.41V390.53a1.07,1.07,0,0,1,1.12-1.11,1.11,1.11,0,0,1,1.12,1.11v23.88c0,13.76-10.06,13.82-13.35,13.82S903.55,428.17,903.55,414.41Z"/><path class="cls-1" d="M948.24,426.82a1.06,1.06,0,0,1-.7-1.35,1.09,1.09,0,0,1,1.35-.77c5.35,1.65,12.41,2.06,16.23-.71a6.82,6.82,0,0,0,2.65-5.93c0-6-4.71-8-9.76-10.06-4.82-2.06-9.88-4.17-9.88-10.06a7.38,7.38,0,0,1,2.58-5.88c4.41-3.7,13.18-2.64,16.65-2.06a1.14,1.14,0,0,1,.94,1.3,1.1,1.1,0,0,1-1.24.88c-2.53-.41-11.11-1.59-14.88,1.59a5,5,0,0,0-1.82,4.17c0,4.42,3.94,6.06,8.53,8,5.23,2.18,11.05,4.64,11.05,12.12a9,9,0,0,1-3.53,7.7c-2.41,1.82-5.76,2.47-9.11,2.47A31.62,31.62,0,0,1,948.24,426.82Z"/><path class="cls-1" d="M1011.11,390.53a1.12,1.12,0,0,1-1.12,1.12H998.23v35.46a1.12,1.12,0,0,1-1.12,1.12,1.09,1.09,0,0,1-1.12-1.12V391.65H984.24a1.16,1.16,0,0,1-1.12-1.12,1.11,1.11,0,0,1,1.12-1.11H1010A1.07,1.07,0,0,1,1011.11,390.53Z"/><path class="cls-1" d="M1049.57,427.11a1.16,1.16,0,0,1-1.12,1.12h-21a1.12,1.12,0,0,1-1.12-1.12V390.53a1.07,1.07,0,0,1,1.12-1.11h21a1.11,1.11,0,0,1,1.12,1.11,1.16,1.16,0,0,1-1.12,1.12h-19.94v14.88h18.65a1.12,1.12,0,0,1,1.11,1.12,1.15,1.15,0,0,1-1.11,1.11h-18.65V426h19.94A1.11,1.11,0,0,1,1049.57,427.11Z"/><path class="cls-1" d="M1090.68,427.7l-20.11-33.23v32.64a1.16,1.16,0,0,1-1.12,1.12,1.12,1.12,0,0,1-1.12-1.12V390.53a1.08,1.08,0,0,1,.82-1.06,1,1,0,0,1,1.24.48l20.17,33.16V390.53a1.09,1.09,0,1,1,2.18,0v36.58a1.09,1.09,0,0,1-.77,1.06,2.35,2.35,0,0,0-.29.06A1.32,1.32,0,0,1,1090.68,427.7Z"/><path class="cls-1" d="M1136.55,390.53a1.12,1.12,0,0,1-1.12,1.12h-11.76v35.46a1.12,1.12,0,0,1-1.11,1.12,1.09,1.09,0,0,1-1.12-1.12V391.65h-11.76a1.16,1.16,0,0,1-1.12-1.12,1.11,1.11,0,0,1,1.12-1.11h25.75A1.07,1.07,0,0,1,1136.55,390.53Z"/><path class="cls-1" d="M1176.83,428.23a1.09,1.09,0,0,1-1.06-.76l-4.93-15.06h-12L1154,427.47a1.13,1.13,0,0,1-1.41.7,1.12,1.12,0,0,1-.71-1.41l11.94-36.64a1.12,1.12,0,0,1,1-.76,1.08,1.08,0,0,1,1.07.76l11.93,36.64A1.11,1.11,0,0,1,1176.83,428.23Zm-6.7-18.06-5.3-16.11-5.23,16.11Z"/><path class="cls-1" d="M1210.07,428.23h-14a1.12,1.12,0,0,1-1.12-1.12V390.53a1.07,1.07,0,0,1,1.12-1.11H1208a9.68,9.68,0,0,1,5.29,17.76,10.77,10.77,0,0,1,7.17,10.17A11,11,0,0,1,1210.07,428.23Zm8.17-10.88a8.61,8.61,0,0,0-8.65-8.59h-8.29a1.14,1.14,0,0,1-1.06-1.11,1.11,1.11,0,0,1,1.06-1.12H1208a7.44,7.44,0,1,0,0-14.88h-10.83V426h12.41A8.67,8.67,0,0,0,1218.24,417.35Z"/><path class="cls-1" d="M1240.35,428.23a1.12,1.12,0,0,1-1.12-1.12V390.53a1.08,1.08,0,0,1,1.12-1.11,1.11,1.11,0,0,1,1.12,1.11V426h18.88a1.1,1.1,0,0,1,1.11,1.11,1.15,1.15,0,0,1-1.11,1.12Z"/><path class="cls-1" d="M1303.45,427.11a1.15,1.15,0,0,1-1.11,1.12h-21a1.11,1.11,0,0,1-1.11-1.12V390.53a1.07,1.07,0,0,1,1.11-1.11h21a1.1,1.1,0,0,1,1.11,1.11,1.15,1.15,0,0,1-1.11,1.12H1282.4v14.88H1301a1.12,1.12,0,0,1,1.12,1.12,1.15,1.15,0,0,1-1.12,1.11H1282.4V426h19.94A1.1,1.1,0,0,1,1303.45,427.11Z"/><path class="cls-2" d="M154.66,493.2s40.85-23.52,47.25-27.3c0,0,23.69-17.55,28.9-36.68,0,0,7.42-56.46,7.8-65.53,0,0,5.63-22.63-14.48-11.74a262.28,262.28,0,0,1-23.75,16.66c-4.9,2.91-47.84,22.41-55.37,66.86,0,0-1.17,45.87-2.21,50.58C142.8,486.05,140.29,501.47,154.66,493.2Z"/><path class="cls-3" d="M261.74,433.84s40.85-23.51,47.25-27.29c0,0,23.69-17.55,28.9-36.68,0,0,7.42-56.46,7.8-65.53,0,0,5.64-22.64-14.48-11.75a262.28,262.28,0,0,1-23.75,16.66c-4.9,2.92-47.84,22.42-55.37,66.87,0,0-1.16,45.86-2.21,50.58C249.88,426.7,247.38,442.12,261.74,433.84Z"/><path class="cls-4" d="M161.68,371.76s40.84-23.51,47.24-27.29c0,0,23.69-17.55,28.91-36.68,0,0,7.41-56.46,7.8-65.53,0,0,5.63-22.63-14.49-11.75a260.58,260.58,0,0,1-23.74,16.67c-4.9,2.91-47.84,22.41-55.38,66.86,0,0-1.16,45.87-2.21,50.58C149.81,364.62,147.31,380,161.68,371.76Z"/><path class="cls-5" d="M268.76,312.41S309.6,288.9,316,285.11c0,0,23.7-17.55,28.91-36.67,0,0,7.41-56.47,7.8-65.53,0,0,5.63-22.64-14.49-11.75a261.43,261.43,0,0,1-23.74,16.66c-4.9,2.92-47.84,22.42-55.38,66.87,0,0-1.16,45.86-2.21,50.58C256.89,305.27,254.39,320.69,268.76,312.41Z"/><path class="cls-6" d="M168.74,220.94c-3,6-7.43,14.95-8.26,17.05,0,0-4.92,7.5,3.82,6.07A101.85,101.85,0,0,1,175.1,241c.54-.11,2.08-.29,4.21-.75l.08.09,16.81-6.92a157.45,157.45,0,0,1,18.65-11.53c.77-.41,1.35-.71,1.71-.93,11.27-6.63,24.72-17.17,24.85-17.28l.92-.6c.52-.28,1-.5,1.54-.75,6.93-4.28,23-15.81,60.55-30.53,3.47-4.81,12-16.63,13.42-19,0,0,6.17-6.75-2.84-6.71a104.19,104.19,0,0,1-11.35,1.35,52.56,52.56,0,0,0-14,1.59c-1.55-1.66-3.19-3.24-4.89-4.75a12.3,12.3,0,0,0,.58-1.91s1.41-19.48,1.35-22.59c0,0,1.49-7.86-5.24-3.73a90.21,90.21,0,0,1-7.87,6.19,44.84,44.84,0,0,0-10.8,8.73c-1.84-.7-3.73-1.32-5.64-1.88,0-.13,0-.27-.06-.4s-7.44-21-8.92-24.2c0,0-2-8.88-7.19-1.54a100.41,100.41,0,0,1-5.38,10,50.6,50.6,0,0,0-7.22,13.73,75.23,75.23,0,0,0-8.53,1.48c-1.21-3.87-3.29-8.67-6.67-11.53,0,0-20.42-12.72-23.87-14.46,0,0-7.61-6.13-7.66,3.55A102.3,102.3,0,0,1,183,117.74c.07,1.92-.87,15,6.65,25.61a70.48,70.48,0,0,0-6.68,6.48,19.65,19.65,0,0,0-6.41-2.41s-22.09-.39-25.6-.14c0,0-9-1.17-3.89,6a102.17,102.17,0,0,1,7.46,8.34c.9,1.17,5.44,8.55,13.59,13.57A70,70,0,0,0,166.1,183a18.55,18.55,0,0,0-6.4,1.26s-18.72,11-21.54,13c0,0-8.14,3.63-.11,7.07a99,99,0,0,1,10.63,3.17,47.68,47.68,0,0,0,17.52,4.37A69.83,69.83,0,0,0,168.74,220.94Z"/></svg>